<?xml version="1.0" encoding="utf-8"?>
<svg version="1.1" xmlns:xlink="http://www.w3.org/1999/xlink" width="12px" height="12px" viewBox="1166 569  12 12" xmlns="http://www.w3.org/2000/svg">
  <path d="M 1166.5 575  A 5.5 5.5 0 0 1 1172 569.5 A 5.5 5.5 0 0 1 1177.5 575 A 5.5 5.5 0 0 1 1172 580.5 A 5.5 5.5 0 0 1 1166.5 575 Z " fill-rule="nonzero" fill="#f0f0f0" stroke="none" />
  <path d="M 1166.5 575  A 5.5 5.5 0 0 1 1172 569.5 A 5.5 5.5 0 0 1 1177.5 575 A 5.5 5.5 0 0 1 1172 580.5 A 5.5 5.5 0 0 1 1166.5 575 Z " stroke-width="1" stroke="#7364e2" fill="none" />
  <path d="M 1168.57142857143 575  L 1171.14285714286 577.571428571429  L 1175.42857142857 571.571428571429  " stroke-width="2.57142857142857" stroke="#7364e2" fill="none" />
</svg>